# xmcd
#
# Track frame offsets:
#	150
#	14852
#	29404
#	38413
#	51913
#	60999
#	72225
#	84801
#	92843
#	104510
#	120864
#	136375
#	149337
#	164306
#	176515
#	193848
#	206179
#	216918
#
# Disc length: 3062 seconds
#
# Revision: 1
# Processed by: cddbd v1.5.2PL0 Copyright (c) Steve Scherf et al.
# Submitted via: audiograbber 1.83.01
#
DISCID=020bf412
DTITLE=Various Artist - Country Club Collection CD 5/5 Country Gospel
DYEAR=2003
DGENRE=Country
TTITLE0=Kenny Rogers - All God's Lonely Children
TTITLE1=Sandy Posey - Put Your Hand In The Hand
TTITLE2=Jack Greene - A Wonderful Time Up There
TTITLE3=Patsy Cline - Life's Railway To Heaven
TTITLE4=Webb Pierce - He's Got The Whole World In His Hands
TTITLE5=Jeanne Pruett - Old Time Religion
TTITLE6=Boxcar Willie - Peace In The Valley
TTITLE7=Anne Murray - Paths Of Victory
TTITLE8=Porter Wagoner - What Would You Do If Jesus Came To Your House
TTITLE9=The Carter Family - Will The Circle Be Unbroken
TTITLE10=Webb Pierce - Faith, Hope And Love
TTITLE11=The Oak Ridge Boys - Dear Jesus Abide With Me
TTITLE12=Kenny Rogers - Tell It All Brother
TTITLE13=Dolly Parton - Letter To Heaven
TTITLE14=Jack Greene - Oh Happy Day
TTITLE15=Jeanne Pruett - You Don't Have To Move A Mountain
TTITLE16=Ferlin Husky - Wings Of A Dove
TTITLE17=Pam Tillis - I Said A Prayer
EXTD=
EXTT0=
EXTT1=
EXTT2=
EXTT3=
EXTT4=
EXTT5=
EXTT6=
EXTT7=
EXTT8=
EXTT9=
EXTT10=
EXTT11=
EXTT12=
EXTT13=
EXTT14=
EXTT15=
EXTT16=
EXTT17=
PLAYORDER=
